<?xml version="1.0" encoding="utf-8"?>
<svg width="800px" height="800px" viewBox="0 0 32 32" fill="none" xmlns="http://www.w3.org/2000/svg">
  <path d="M16.5 12.5h-2v2h2v-2zm-3 0h-2v2h2v-2zm-3 0h-2v2h2v-2zm-3 0h-2v2h2v-2zm12-3h-2v2h2v-2zm-3 0h-2v2h2v-2zm-3 0h-2v2h2v-2zm-3 0h-2v2h2v-2zm-3 0h-2v2h2v-2zm9-3H4c-1.1 0-2 .9-2 2v16c0 1.1.9 2 2 2h24c1.1 0 2-.9 2-2v-16c0-1.1-.9-2-2-2z" fill="#2496ED"/>
  <path d="M28 6H4c-1.1 0-2 .9-2 2v16c0 1.1.9 2 2 2h24c1.1 0 2-.9 2-2V8c0-1.1-.9-2-2-2z" fill="#0db7ed"/>
  <path d="M8 10h2v2H8v-2zm3 0h2v2h-2v-2zm3 0h2v2h-2v-2zm3 0h2v2h-2v-2zm3 0h2v2h-2v-2z" fill="#ffffff"/>
</svg>
