<?xml version="1.0" encoding="utf-8"?>
<svg width="800px" height="800px" viewBox="0 0 32 32" fill="none" xmlns="http://www.w3.org/2000/svg">
  <path d="M30.428 14.663L17.337 1.572c-.76-.76-1.993-.76-2.753 0L1.572 14.663c-.76.76-.76 1.993 0 2.753l13.091 13.091c.76.76 1.993.76 2.753 0l13.091-13.091c.76-.76.76-1.993 0-2.753zM18.4 25.6H13.6v-3.2h4.8v3.2zm0-4.8H13.6v-3.2h4.8v3.2zm4.8 4.8h-3.2v-3.2h3.2v3.2z" fill="#F05032"/>
  <path d="M16 2L2 16l14 14 14-14L16 2zm0 25.6L6.4 16 16 6.4 25.6 16 16 27.6z" fill="#EE513B"/>
</svg>
