<?xml version="1.0" encoding="utf-8"?>
<svg width="800px" height="800px" viewBox="0 0 32 32" fill="none" xmlns="http://www.w3.org/2000/svg">
  <path fill-rule="evenodd" clip-rule="evenodd" d="M16 0C7.163 0 0 7.163 0 16c0 7.073 4.584 13.068 10.942 15.182.8.147 1.092-.347 1.092-.771 0-.381-.014-1.39-.021-2.728-4.45.967-5.39-2.144-5.39-2.144-.728-1.849-1.778-2.343-1.778-2.343-1.453-.994.11-.994.11-.994 1.606.112 2.452 1.649 2.452 1.649 1.427 2.445 3.743 1.74 4.656 1.33.146-1.035.558-1.74 1.015-2.142-3.552-.404-7.286-1.776-7.286-7.91 0-1.748.625-3.178 1.649-4.3-.165-.404-.714-2.03.156-4.234 0 0 1.344-.43 4.401 1.64 1.277-.355 2.645-.532 4.005-.538 1.36.006 2.728.183 4.005.538 3.057-2.07 4.401-1.64 4.401-1.64.87 2.204.321 3.83.156 4.234 1.024 1.122 1.649 2.552 1.649 4.3 0 6.146-3.74 7.502-7.302 7.897.574.495 1.085 1.47 1.085 2.962 0 2.14-.02 3.864-.02 4.39 0 .428.292.926 1.1.77C27.421 29.063 32 23.068 32 16 32 7.163 24.837 0 16 0z" fill="#181717"/>
</svg>
